<svg viewBox="0 0 576 96" width="576" height="96" xmlns="http://www.w3.org/2000/svg" xmlns:xlink="http://www.w3.org/1999/xlink">
    <style>
        rect { shape-rendering: crispEdges; }
        text {
            dominant-baseline: text-before-edge;
            white-space: pre;
            font: 14px monospace;
            fill: #bbbbbb;
        }
        .u { text-decoration: underline; }
    </style>
    <rect width="100%" height="100%" x="0" y="0" style="fill: #000000"/>
    <text x="8" y="0" style="fill: #20f867">_</text>
    <text x="16" y="0" style="fill: #23f962">_</text>
    <text x="24" y="0" style="fill: #26fa5e">_</text>
    <text x="32" y="0" style="fill: #29fb5a">_</text>
    <text x="136" y="0" style="fill: #58fc2b">_</text>
    <text x="152" y="0" style="fill: #60fa25">_</text>
    <text x="232" y="0" style="fill: #8ae80d">_</text>
    <text x="264" y="0" style="fill: #9bdd06">_</text>
    <text x="280" y="0" style="fill: #a3d704">_</text>
    <text x="392" y="0" style="fill: #d6a504">_</text>
    <text x="400" y="0" style="fill: #d9a105">_</text>
    <text x="408" y="0" style="fill: #dc9d06">_</text>
    <text x="416" y="0" style="fill: #df9807">_</text>
    <text x="0" y="16" style="fill: #26fa5e">|</text>
    <text x="24" y="16" style="fill: #2ffd52">_</text>
    <text x="40" y="16" style="fill: #36fe4a">\</text>
    <text x="56" y="16" style="fill: #3dfe43">_</text>
    <text x="64" y="16" style="fill: #41fe3f">_</text>
    <text x="72" y="16" style="fill: #44fe3c">_</text>
    <text x="96" y="16" style="fill: #50fd31">_</text>
    <text x="104" y="16" style="fill: #54fd2e">_</text>
    <text x="120" y="16" style="fill: #5cfb28">_</text>
    <text x="128" y="16" style="fill: #60fa25">|</text>
    <text x="144" y="16" style="fill: #68f71f">|</text>
    <text x="160" y="16" style="fill: #71f41a">|</text>
    <text x="168" y="16" style="fill: #75f217">_</text>
    <text x="200" y="16" style="fill: #86ea0e">_</text>
    <text x="224" y="16" style="fill: #92e309">|</text>
    <text x="240" y="16" style="fill: #9bdd06">\</text>
    <text x="256" y="16" style="fill: #a3d704">|</text>
    <text x="272" y="16" style="fill: #abd102">(</text>
    <text x="280" y="16" style="fill: #afce02">_</text>
    <text x="288" y="16" style="fill: #b3ca01">)</text>
    <text x="304" y="16" style="fill: #bbc301">_</text>
    <text x="312" y="16" style="fill: #bec001">_</text>
    <text x="320" y="16" style="fill: #c2bc01">_</text>
    <text x="336" y="16" style="fill: #c9b401">_</text>
    <text x="344" y="16" style="fill: #ccb102">_</text>
    <text x="352" y="16" style="fill: #d0ad02">_</text>
    <text x="384" y="16" style="fill: #dc9d06">/</text>
    <text x="400" y="16" style="fill: #e29409">_</text>
    <text x="408" y="16" style="fill: #e4900a">_</text>
    <text x="416" y="16" style="fill: #e78c0c">_</text>
    <text x="424" y="16" style="fill: #e9880e">|</text>
    <text x="432" y="16" style="fill: #ec8310">_</text>
    <text x="448" y="16" style="fill: #f07b14">_</text>
    <text x="456" y="16" style="fill: #f27716">_</text>
    <text x="472" y="16" style="fill: #f56e1b">_</text>
    <text x="480" y="16" style="fill: #f76a1e">_</text>
    <text x="496" y="16" style="fill: #f96223">_</text>
    <text x="512" y="16" style="fill: #fb5a29">_</text>
    <text x="520" y="16" style="fill: #fc562d">_</text>
    <text x="528" y="16" style="fill: #fd5230">_</text>
    <text x="544" y="16" style="fill: #fe4a37">_</text>
    <text x="552" y="16" style="fill: #fe463a">_</text>
    <text x="560" y="16" style="fill: #fe423e">_</text>
    <text x="0" y="32" style="fill: #2ffd52">|</text>
    <text x="16" y="32" style="fill: #36fe4a">|</text>
    <text x="24" y="32" style="fill: #3afe47">_</text>
    <text x="32" y="32" style="fill: #3dfe43">)</text>
    <text x="48" y="32" style="fill: #44fe3c">/</text>
    <text x="64" y="32" style="fill: #4cfe35">_</text>
    <text x="80" y="32" style="fill: #54fd2e">\</text>
    <text x="88" y="32" style="fill: #58fc2b">/</text>
    <text x="104" y="32" style="fill: #60fa25">_</text>
    <text x="112" y="32" style="fill: #64f922">`</text>
    <text x="128" y="32" style="fill: #6df61c">|</text>
    <text x="144" y="32" style="fill: #75f217">|</text>
    <text x="160" y="32" style="fill: #7def13">|</text>
    <text x="176" y="32" style="fill: #86ea0e">|</text>
    <text x="192" y="32" style="fill: #8ee50b">|</text>
    <text x="208" y="32" style="fill: #97e008">|</text>
    <text x="224" y="32" style="fill: #9fda05">|</text>
    <text x="248" y="32" style="fill: #abd102">\</text>
    <text x="256" y="32" style="fill: #afce02">|</text>
    <text x="272" y="32" style="fill: #b7c701">|</text>
    <text x="288" y="32" style="fill: #bec001">|</text>
    <text x="296" y="32" style="fill: #c2bc01">/</text>
    <text x="312" y="32" style="fill: #c9b401">_</text>
    <text x="320" y="32" style="fill: #ccb102">_</text>
    <text x="328" y="32" style="fill: #d0ad02">/</text>
    <text x="344" y="32" style="fill: #d6a504">_</text>
    <text x="360" y="32" style="fill: #dc9d06">\</text>
    <text x="376" y="32" style="fill: #e29409">|</text>
    <text x="392" y="32" style="fill: #e78c0c">|</text>
    <text x="416" y="32" style="fill: #ee7f12">_</text>
    <text x="424" y="32" style="fill: #f07b14">|</text>
    <text x="440" y="32" style="fill: #f37219">&#39;</text>
    <text x="448" y="32" style="fill: #f56e1b">_</text>
    <text x="456" y="32" style="fill: #f76a1e">_</text>
    <text x="464" y="32" style="fill: #f86621">/</text>
    <text x="480" y="32" style="fill: #fa5e26">_</text>
    <text x="488" y="32" style="fill: #fb5a29">`</text>
    <text x="504" y="32" style="fill: #fd5230">/</text>
    <text x="520" y="32" style="fill: #fe4a37">_</text>
    <text x="528" y="32" style="fill: #fe463a">_</text>
    <text x="536" y="32" style="fill: #fe423e">/</text>
    <text x="552" y="32" style="fill: #fe3b45">_</text>
    <text x="560" y="32" style="fill: #fe3749">_</text>
    <text x="568" y="32" style="fill: #fe344d">|</text>
    <text x="0" y="48" style="fill: #3afe47">|</text>
    <text x="24" y="48" style="fill: #44fe3c">_</text>
    <text x="40" y="48" style="fill: #4cfe35">&lt;</text>
    <text x="64" y="48" style="fill: #58fc2b">_</text>
    <text x="72" y="48" style="fill: #5cfb28">_</text>
    <text x="80" y="48" style="fill: #60fa25">/</text>
    <text x="96" y="48" style="fill: #68f71f">(</text>
    <text x="104" y="48" style="fill: #6df61c">_</text>
    <text x="112" y="48" style="fill: #71f41a">|</text>
    <text x="128" y="48" style="fill: #79f115">|</text>
    <text x="144" y="48" style="fill: #82ec10">|</text>
    <text x="160" y="48" style="fill: #8ae80d">|</text>
    <text x="176" y="48" style="fill: #92e309">|</text>
    <text x="184" y="48" style="fill: #97e008">_</text>
    <text x="192" y="48" style="fill: #9bdd06">|</text>
    <text x="208" y="48" style="fill: #a3d704">|</text>
    <text x="224" y="48" style="fill: #abd102">|</text>
    <text x="240" y="48" style="fill: #b3ca01">|</text>
    <text x="248" y="48" style="fill: #b7c701">\</text>
    <text x="272" y="48" style="fill: #c2bc01">|</text>
    <text x="288" y="48" style="fill: #c9b401">|</text>
    <text x="304" y="48" style="fill: #d0ad02">(</text>
    <text x="312" y="48" style="fill: #d3a903">_</text>
    <text x="320" y="48" style="fill: #d6a504">|</text>
    <text x="344" y="48" style="fill: #df9807">_</text>
    <text x="352" y="48" style="fill: #e29409">_</text>
    <text x="360" y="48" style="fill: #e4900a">/</text>
    <text x="376" y="48" style="fill: #e9880e">|</text>
    <text x="392" y="48" style="fill: #ee7f12">|</text>
    <text x="400" y="48" style="fill: #f07b14">_</text>
    <text x="408" y="48" style="fill: #f27716">|</text>
    <text x="424" y="48" style="fill: #f56e1b">|</text>
    <text x="440" y="48" style="fill: #f86621">|</text>
    <text x="456" y="48" style="fill: #fa5e26">|</text>
    <text x="472" y="48" style="fill: #fc562d">(</text>
    <text x="480" y="48" style="fill: #fd5230">_</text>
    <text x="488" y="48" style="fill: #fe4e33">|</text>
    <text x="504" y="48" style="fill: #fe463a">\</text>
    <text x="512" y="48" style="fill: #fe423e">_</text>
    <text x="520" y="48" style="fill: #fe3f41">_</text>
    <text x="536" y="48" style="fill: #fe3749">\</text>
    <text x="544" y="48" style="fill: #fe344d">_</text>
    <text x="552" y="48" style="fill: #fd3151">_</text>
    <text x="568" y="48" style="fill: #fc2a59">\</text>
    <text x="0" y="64" style="fill: #44fe3c">|</text>
    <text x="8" y="64" style="fill: #48fe38">_</text>
    <text x="16" y="64" style="fill: #4cfe35">|</text>
    <text x="32" y="64" style="fill: #54fd2e">\</text>
    <text x="40" y="64" style="fill: #58fc2b">_</text>
    <text x="48" y="64" style="fill: #5cfb28">\</text>
    <text x="56" y="64" style="fill: #60fa25">_</text>
    <text x="64" y="64" style="fill: #64f922">_</text>
    <text x="72" y="64" style="fill: #68f71f">_</text>
    <text x="80" y="64" style="fill: #6df61c">|</text>
    <text x="88" y="64" style="fill: #71f41a">\</text>
    <text x="96" y="64" style="fill: #75f217">_</text>
    <text x="104" y="64" style="fill: #79f115">_</text>
    <text x="112" y="64" style="fill: #7def13">,</text>
    <text x="120" y="64" style="fill: #82ec10">_</text>
    <text x="128" y="64" style="fill: #86ea0e">|</text>
    <text x="136" y="64" style="fill: #8ae80d">_</text>
    <text x="144" y="64" style="fill: #8ee50b">|</text>
    <text x="152" y="64" style="fill: #92e309">_</text>
    <text x="160" y="64" style="fill: #97e008">|</text>
    <text x="168" y="64" style="fill: #9bdd06">\</text>
    <text x="176" y="64" style="fill: #9fda05">_</text>
    <text x="184" y="64" style="fill: #a3d704">_</text>
    <text x="192" y="64" style="fill: #a7d403">,</text>
    <text x="208" y="64" style="fill: #afce02">|</text>
    <text x="224" y="64" style="fill: #b7c701">|</text>
    <text x="232" y="64" style="fill: #bbc301">_</text>
    <text x="240" y="64" style="fill: #bec001">|</text>
    <text x="256" y="64" style="fill: #c5b801">\</text>
    <text x="264" y="64" style="fill: #c9b401">_</text>
    <text x="272" y="64" style="fill: #ccb102">|</text>
    <text x="280" y="64" style="fill: #d0ad02">_</text>
    <text x="288" y="64" style="fill: #d3a903">|</text>
    <text x="296" y="64" style="fill: #d6a504">\</text>
    <text x="304" y="64" style="fill: #d9a105">_</text>
    <text x="312" y="64" style="fill: #dc9d06">_</text>
    <text x="320" y="64" style="fill: #df9807">_</text>
    <text x="328" y="64" style="fill: #e29409">\</text>
    <text x="336" y="64" style="fill: #e4900a">_</text>
    <text x="344" y="64" style="fill: #e78c0c">_</text>
    <text x="352" y="64" style="fill: #e9880e">_</text>
    <text x="360" y="64" style="fill: #ec8310">|</text>
    <text x="384" y="64" style="fill: #f27716">\</text>
    <text x="392" y="64" style="fill: #f37219">_</text>
    <text x="400" y="64" style="fill: #f56e1b">_</text>
    <text x="408" y="64" style="fill: #f76a1e">_</text>
    <text x="416" y="64" style="fill: #f86621">_</text>
    <text x="424" y="64" style="fill: #f96223">|</text>
    <text x="432" y="64" style="fill: #fa5e26">_</text>
    <text x="440" y="64" style="fill: #fb5a29">|</text>
    <text x="464" y="64" style="fill: #fe4e33">\</text>
    <text x="472" y="64" style="fill: #fe4a37">_</text>
    <text x="480" y="64" style="fill: #fe463a">_</text>
    <text x="488" y="64" style="fill: #fe423e">,</text>
    <text x="496" y="64" style="fill: #fe3f41">_</text>
    <text x="504" y="64" style="fill: #fe3b45">|</text>
    <text x="512" y="64" style="fill: #fe3749">_</text>
    <text x="520" y="64" style="fill: #fe344d">_</text>
    <text x="528" y="64" style="fill: #fd3151">_</text>
    <text x="536" y="64" style="fill: #fc2d55">/</text>
    <text x="544" y="64" style="fill: #fc2a59">_</text>
    <text x="552" y="64" style="fill: #fb275d">_</text>
    <text x="560" y="64" style="fill: #fa2461">_</text>
    <text x="568" y="64" style="fill: #f82165">/</text>
    <text x="168" y="80" style="fill: #a7d403">|</text>
    <text x="176" y="80" style="fill: #abd102">_</text>
    <text x="184" y="80" style="fill: #afce02">_</text>
    <text x="192" y="80" style="fill: #b3ca01">_</text>
    <text x="200" y="80" style="fill: #b7c701">/</text>
</svg>
