<?xml version="1.0" standalone="no"?>
<!DOCTYPE svg PUBLIC "-//W3C//DTD SVG 20010904//EN"
 "http://www.w3.org/TR/2001/REC-SVG-20010904/DTD/svg10.dtd">
<svg version="1.0" xmlns="http://www.w3.org/2000/svg"
 width="1216.000000pt" height="1216.000000pt" viewBox="0 0 1216.000000 1216.000000"
 preserveAspectRatio="xMidYMid meet">
<metadata>
Created by potrace 1.14, written by Peter Selinger 2001-2017
</metadata>
<g transform="translate(0.000000,1216.000000) scale(0.100000,-0.100000)"
fill="#000000" stroke="none">
<path d="M0 6080 l0 -3840 6080 0 6080 0 0 3840 0 3840 -6080 0 -6080 0 0
-3840z m5148 2778 l-1 -43 -4 37 -4 38 -327 3 -327 2 333 3 332 2 -2 -42z
m2562 -3 l0 -45 -330 0 -330 0 0 45 0 45 330 0 330 0 0 -45z m3840 0 l0 -45
-1290 0 -1290 0 0 45 0 45 1290 0 1290 0 0 -45z m-7320 -770 l0 -555 -55 0
-55 0 0 555 0 555 55 0 55 0 0 -555z m2560 0 l0 -555 -55 0 -55 0 0 555 0 555
55 0 55 0 0 -555z m1280 0 l0 -555 -55 0 -55 0 0 555 0 555 55 0 55 0 0 -555z
m3850 0 l0 -555 -60 0 -60 0 0 555 0 555 60 0 60 0 0 -555z m-8346 88 c110
-236 206 -440 213 -455 l14 -28 -51 0 -51 0 -55 118 c-31 64 -64 135 -74 157
-10 22 -80 170 -154 330 -75 159 -136 293 -136 297 0 4 21 8 48 8 l48 0 198
-427z m1890 72 c89 -192 184 -394 210 -449 25 -54 46 -100 46 -102 0 -2 -24
-4 -52 -4 l-53 0 -169 363 c-93 199 -189 404 -212 455 l-44 93 55 -3 55 -3
164 -350z m3456 350 c0 -3 -36 -83 -81 -177 -44 -95 -103 -220 -129 -278 -27
-58 -85 -181 -128 -275 l-80 -170 -57 -3 c-51 -3 -55 -1 -47 15 5 10 100 215
213 456 l203 437 53 0 c29 0 53 -2 53 -5z m2313 -975 l317 0 0 -45 0 -45 -975
0 -975 0 0 45 0 45 323 2 c177 2 473 2 657 1 184 -1 478 -2 653 -3z m-9563
-815 l0 -555 -55 0 -55 0 0 555 0 555 55 0 55 0 0 -555z m2560 0 l0 -555 -55
0 -55 0 0 555 0 555 55 0 55 0 0 -555z m2560 0 l0 -555 -55 0 -55 0 0 555 0
555 55 0 55 0 0 -555z m1282 0 l3 -555 -57 0 -58 0 0 555 0 555 55 0 55 0 2
-555z m1278 0 l0 -555 -55 0 -55 0 0 555 0 555 55 0 55 0 0 -555z m-6480 515
c11 -16 39 -65 61 -109 125 -250 111 -525 -38 -772 l-38 -64 -57 -3 -57 -3 28
58 c66 134 111 309 111 434 0 122 -41 288 -104 420 l-33 69 53 0 c47 0 55 -3
74 -30z m3147 -165 c41 -88 85 -182 98 -210 12 -27 73 -157 134 -287 61 -131
111 -240 111 -243 0 -3 -24 -5 -53 -5 l-53 0 -204 438 c-112 240 -207 445
-212 455 -8 16 -4 18 48 15 l56 -3 75 -160z m5533 -855 l0 -50 -335 0 -335 0
0 43 c0 24 3 47 7 50 3 4 154 7 335 7 l328 0 0 -50z m-8960 -5 l0 -45 -330 0
-330 0 0 45 0 45 330 0 330 0 0 -45z m-2200 -770 l0 -555 -55 0 -55 0 0 555 0
555 55 0 55 0 0 -555z m3840 0 l0 -555 -55 0 -55 0 0 555 0 555 55 0 55 0 0
-555z m1280 0 l0 -555 -55 0 -55 0 0 555 0 555 55 0 55 0 0 -555z m2570 0 l0
-555 -60 0 -60 0 0 555 0 555 60 0 60 0 0 -555z m1270 0 l0 -555 -55 0 -55 0
0 555 0 555 55 0 55 0 0 -555z m1290 0 l0 -555 -60 0 -60 0 0 555 0 555 60 0
60 0 0 -555z m1280 0 l0 -555 -60 0 -60 0 0 555 0 555 60 0 60 0 0 -555z
m-5769 65 c115 -245 209 -448 209 -452 0 -5 -24 -8 -53 -8 l-54 0 -208 448
c-115 246 -210 451 -213 455 -2 4 22 7 53 5 l58 -3 208 -445z m-2333 208 l-3
-61 -212 -76 c-117 -42 -213 -78 -213 -81 0 -3 69 -30 153 -59 83 -30 179 -65
212 -76 l60 -22 3 -61 c2 -34 1 -62 -2 -62 -2 0 -123 47 -268 103 -145 57
-271 107 -281 110 -15 6 -17 16 -15 68 l3 61 140 54 c77 31 201 79 275 109 74
30 139 54 143 54 4 1 7 -27 5 -61z m6450 -780 l3 -48 -335 0 -336 0 0 43 c0
24 3 47 7 50 4 4 153 6 332 5 l326 -3 3 -47z m-7678 -3 l0 -45 -330 0 -330 0
0 45 0 45 330 0 330 0 0 -45z m-2200 -770 l0 -555 -55 0 -55 0 0 555 0 555 55
0 55 0 0 -555z m1280 0 l0 -555 -55 0 -55 0 0 555 0 555 55 0 55 0 0 -555z
m3840 0 l0 -555 -55 0 -55 0 0 555 0 555 55 0 55 0 0 -555z m2570 0 l0 -555
-60 0 -60 0 0 555 0 555 60 0 60 0 0 -555z m3840 0 l0 -555 -60 0 -60 0 0 555
0 555 60 0 60 0 0 -555z m-8969 65 c114 -245 208 -448 209 -452 0 -5 -24 -8
-53 -8 l-53 0 -209 448 c-114 246 -210 451 -213 455 -2 4 22 7 53 5 l57 -3
209 -445z m1280 0 c115 -245 208 -448 209 -452 0 -5 -24 -8 -53 -8 l-54 0
-208 448 c-115 246 -210 451 -213 455 -2 4 22 7 53 5 l58 -3 208 -445z m2561
0 c114 -245 208 -448 208 -452 0 -5 -24 -8 -53 -8 -46 0 -55 3 -64 23 -114
240 -406 865 -410 875 -4 10 8 12 53 10 l58 -3 208 -445z m1920 0 c114 -245
208 -449 208 -453 0 -4 -25 -7 -55 -5 l-56 3 -209 449 c-116 247 -210 451
-210 453 0 2 26 3 57 1 l57 -3 208 -445z m2838 -570 l0 -50 -1295 0 -1295 0 0
43 c0 24 3 47 7 50 3 4 586 7 1295 7 l1288 0 0 -50z m-10240 -5 l0 -45 -330 0
-330 0 0 45 0 45 330 0 330 0 0 -45z m2560 0 l0 -45 -330 0 -330 0 0 45 0 45
330 0 330 0 0 -45z m1280 0 l0 -45 -335 0 -335 0 0 45 0 45 335 0 335 0 0 -45z
m2560 0 l0 -45 -335 0 -335 0 0 45 0 45 335 0 335 0 0 -45z"/>
</g>
</svg>
